<svg width="64" height="64" viewBox="0 0 64 64" fill="none" xmlns="http://www.w3.org/2000/svg">
<path d="M14.4769 5.31648C21.5698 11.3447 29.199 23.5674 32.0001 30.1267C34.8014 23.5678 42.4302 11.3446 49.5233 5.31648C54.6412 0.966776 62.9334 -2.39878 62.9334 8.31059C62.9334 10.4494 61.8502 26.2777 61.2149 28.8474C59.0066 37.7813 50.9596 40.0599 43.8016 38.6808C56.3136 41.0915 59.4965 49.0768 52.6226 57.0621C39.5677 72.2276 33.8589 53.257 32.3954 48.396C32.1272 47.5048 32.0018 47.088 31.9999 47.4424C31.9981 47.0879 31.8726 47.5048 31.6044 48.396C30.1416 53.257 24.4329 72.2281 11.3772 57.0621C4.50321 49.0768 7.68603 41.091 20.1982 38.6808C13.0401 40.0599 4.99291 37.7813 2.78491 28.8474C2.14958 26.2774 1.06641 10.4492 1.06641 8.31059C1.06641 -2.39878 9.35889 0.966776 14.4765 5.31648H14.4769Z" fill="url(#paint0_linear_986_10)"/>
<defs>
<linearGradient id="paint0_linear_986_10" x1="31.9999" y1="1.16553" x2="31.9999" y2="62.8326" gradientUnits="userSpaceOnUse">
<stop stop-color="#1185FE"/>
<stop offset="1" stop-color="#B6D7FA"/>
</linearGradient>
</defs>
</svg>
